<svg xmlns="http://www.w3.org/2000/svg" width="226" height="226" viewBox="0 0 226 226" xmlns:xlink="http://www.w3.org/1999/xlink"><path fill="none" pointer-events="none" d="M0 0h226v226H0z"/><defs><path id="a" d="M0 0h131.242L188 60v166H0z"/><path id="c" d="M64.65 0h.7v67h-65v-5.631"/></defs><g fill="none" fill-rule="evenodd"><g stroke-dasharray="10,10" transform="matrix(1 0 0 1 19 0)"><mask id="b" fill="#fff"><use xlink:href="#a"/></mask><path d="M0 0h131.242L188 60v166H0V0z" stroke="#DADADA" stroke-width="10" mask="url(#b)"/></g><path d="M109.05 167.07c1.02 0 1.915.19 2.685.57.77.38 1.415 1.02 1.935 1.92h.06v-2.07h4.05v14.52c0 .62-.085 1.33-.255 2.13-.17.8-.535 1.545-1.095 2.235-.56.69-1.37 1.275-2.43 1.755s-2.48.72-4.26.72c-.76 0-1.535-.095-2.325-.285a7.386 7.386 0 01-2.16-.885c-.65-.4-1.19-.915-1.62-1.545-.43-.63-.675-1.385-.735-2.265h4.23c.2.8.59 1.355 1.17 1.665.58.31 1.25.465 2.01.465 1.2 0 2.075-.36 2.625-1.08.55-.72.815-1.63.795-2.73v-2.04h-.06a4.218 4.218 0 01-1.965 1.815c-.85.39-1.745.585-2.685.585-1.16 0-2.16-.205-3-.615-.84-.41-1.53-.97-2.07-1.68-.54-.71-.935-1.54-1.185-2.49-.25-.95-.375-1.955-.375-3.015 0-1 .145-1.965.435-2.895.29-.93.715-1.75 1.275-2.46a6.162 6.162 0 012.085-1.695c.83-.42 1.785-.63 2.865-.63zm19.32 0c1.32 0 2.47.255 3.45.765a6.885 6.885 0 012.415 2.055c.63.86 1.085 1.84 1.365 2.94.28 1.1.38 2.25.3 3.45h-11.19c.06 1.38.41 2.38 1.05 3 .64.62 1.56.93 2.76.93.86 0 1.6-.215 2.22-.645.62-.43 1-.885 1.14-1.365h3.75c-.6 1.86-1.52 3.19-2.76 3.99-1.24.8-2.74 1.2-4.5 1.2-1.22 0-2.32-.195-3.3-.585a6.861 6.861 0 01-2.49-1.665c-.68-.72-1.205-1.58-1.575-2.58-.37-1-.555-2.1-.555-3.3 0-1.16.19-2.24.57-3.24.38-1 .92-1.865 1.62-2.595a7.625 7.625 0 012.505-1.725c.97-.42 2.045-.63 3.225-.63zm-35.61 0c.78 0 1.57.055 2.37.165.8.11 1.53.325 2.19.645.66.32 1.2.765 1.62 1.335.42.57.63 1.325.63 2.265v8.07l.008.52a15.4 15.4 0 00.112 1.49c.08.64.22 1.12.42 1.44h-4.32l-.075-.242a6.137 6.137 0 01-.225-1.258c-.68.7-1.48 1.19-2.4 1.47-.92.28-1.86.42-2.82.42-.74 0-1.43-.09-2.07-.27a4.74 4.74 0 01-1.68-.84 3.91 3.91 0 01-1.125-1.44c-.27-.58-.405-1.27-.405-2.07 0-.88.155-1.605.465-2.175.31-.57.71-1.025 1.2-1.365.49-.34 1.05-.595 1.68-.765.63-.17 1.265-.305 1.905-.405.64-.1 1.27-.18 1.89-.24.62-.06 1.17-.15 1.65-.27.48-.12.86-.295 1.14-.525.28-.23.41-.565.39-1.005 0-.46-.075-.825-.225-1.095-.15-.27-.35-.48-.6-.63a2.36 2.36 0 00-.87-.3 7.12 7.12 0 00-1.065-.075c-.84 0-1.5.18-1.98.54-.48.36-.76.96-.84 1.8h-4.26l.024-.295c.088-.87.33-1.601.726-2.195.44-.66 1-1.19 1.68-1.59a7.32 7.32 0 012.295-.855c.85-.17 1.705-.255 2.565-.255zm-16.14 0c.82 0 1.58.1 2.28.3.7.2 1.3.52 1.8.96.5.44.89 1.015 1.17 1.725.28.71.42 1.565.42 2.565V183h-4.26v-8.79c0-.52-.02-1.01-.06-1.47a3.12 3.12 0 00-.33-1.2c-.18-.34-.445-.61-.795-.81-.35-.2-.825-.3-1.425-.3-.6 0-1.085.115-1.455.345a2.5 2.5 0 00-.87.9c-.21.37-.35.79-.42 1.26a9.66 9.66 0 00-.105 1.425V183h-4.26v-8.7c0-.46-.01-.915-.03-1.365a3.831 3.831 0 00-.255-1.245c-.15-.38-.4-.685-.75-.915-.35-.23-.865-.345-1.545-.345-.2 0-.465.045-.795.135-.33.09-.65.26-.96.51-.31.25-.575.61-.795 1.08-.22.47-.33 1.085-.33 1.845v9h-4.26v-15.51h4.02v2.1h.06c.56-.8 1.235-1.42 2.025-1.86.79-.44 1.695-.66 2.715-.66.98 0 1.875.19 2.685.57.81.38 1.425 1.05 1.845 2.01.46-.68 1.085-1.28 1.875-1.8s1.725-.78 2.805-.78zm-21.84-5.49V183h-4.71v-21.42h4.71zm40.53 13.83l-.113.092a2.01 2.01 0 01-.562.283c-.27.09-.56.165-.87.225-.31.06-.635.11-.975.15-.34.04-.68.09-1.02.15-.32.06-.635.14-.945.24-.31.1-.58.235-.81.405-.23.17-.415.385-.555.645-.14.26-.21.59-.21.99 0 .38.07.7.21.96.14.26.33.465.57.615.24.15.52.255.84.315.32.06.65.09.99.09.84 0 1.49-.14 1.95-.42.46-.28.8-.615 1.02-1.005.22-.39.355-.785.405-1.185.05-.4.075-.72.075-.96v-1.59zm14.79-5.13c-.6 0-1.115.12-1.545.36-.43.24-.79.565-1.08.975-.29.41-.5.88-.63 1.41a6.966 6.966 0 00-.195 1.665c0 .56.055 1.115.165 1.665.11.55.3 1.045.57 1.485.27.44.625.8 1.065 1.08.44.28.99.42 1.65.42.6 0 1.13-.12 1.59-.36.46-.24.84-.56 1.14-.96.3-.4.525-.855.675-1.365a5.66 5.66 0 00.225-1.605c0-.64-.06-1.245-.18-1.815a4.535 4.535 0 00-.6-1.515c-.28-.44-.65-.79-1.11-1.05-.46-.26-1.04-.39-1.74-.39zm18.15 0c-.68 0-1.245.115-1.695.345-.45.23-.81.515-1.08.855-.27.34-.46.7-.57 1.08-.11.38-.175.72-.195 1.02h6.93c-.2-1.08-.555-1.9-1.065-2.46-.51-.56-1.285-.84-2.325-.84zm-39.96-35.21c1.22 0 2.325.195 3.315.585.99.39 1.835.94 2.535 1.65.7.71 1.24 1.57 1.62 2.58.38 1.01.57 2.135.57 3.375 0 1.24-.19 2.36-.57 3.36-.38 1-.92 1.855-1.62 2.565a7.06 7.06 0 01-2.535 1.635c-.99.38-2.095.57-3.315.57-1.22 0-2.32-.19-3.3-.57a7.087 7.087 0 01-2.52-1.635c-.7-.71-1.24-1.565-1.62-2.565-.38-1-.57-2.12-.57-3.36 0-1.24.19-2.365.57-3.375.38-1.01.92-1.87 1.62-2.58a7.26 7.26 0 012.52-1.65c.98-.39 2.08-.585 3.3-.585zm54.36 0c.92 0 1.805.12 2.655.36.85.24 1.61.605 2.28 1.095.67.49 1.215 1.1 1.635 1.83.42.73.66 1.595.72 2.595h-4.17c-.28-1.78-1.33-2.67-3.15-2.67-.68 0-1.25.155-1.71.465-.46.31-.835.71-1.125 1.2-.29.49-.495 1.03-.615 1.62a8.426 8.426 0 000 3.465c.12.58.315 1.105.585 1.575.27.47.635.855 1.095 1.155.46.3 1.02.45 1.68.45 1.02 0 1.805-.285 2.355-.855.55-.57.895-1.335 1.035-2.295h4.11c-.28 2.06-1.08 3.63-2.4 4.71-1.32 1.08-3.01 1.62-5.07 1.62-1.16 0-2.225-.195-3.195-.585a7.084 7.084 0 01-2.475-1.635 7.446 7.446 0 01-1.59-2.505c-.38-.97-.57-2.035-.57-3.195 0-1.2.175-2.315.525-3.345.35-1.03.865-1.92 1.545-2.67a7.071 7.071 0 012.49-1.755c.98-.42 2.1-.63 3.36-.63zm-20.97.42v8.76c0 1.28.2 2.235.6 2.865.4.63 1.11.945 2.13.945 1.16 0 2-.345 2.52-1.035s.78-1.825.78-3.405v-8.13h4.26V151h-4.05v-2.16h-.09c-.54.9-1.24 1.55-2.1 1.95-.86.4-1.74.6-2.64.6-1.14 0-2.075-.15-2.805-.45-.73-.3-1.305-.725-1.725-1.275-.42-.55-.715-1.22-.885-2.01a12.5 12.5 0 01-.255-2.625v-9.54h4.26zm-7.47-5.91V151h-4.05v-1.98h-.06c-.5.84-1.155 1.445-1.965 1.815-.81.37-1.725.555-2.745.555-1.16 0-2.18-.225-3.06-.675a6.143 6.143 0 01-2.175-1.83c-.57-.77-1-1.655-1.29-2.655-.29-1-.435-2.04-.435-3.12 0-1.04.145-2.045.435-3.015.29-.97.72-1.825 1.29-2.565a6.432 6.432 0 012.145-1.785c.86-.45 1.86-.675 3-.675.92 0 1.795.195 2.625.585.83.39 1.485.965 1.965 1.725h.06v-7.8h4.26zm43.62 1.26v4.65h3.12v2.85h-3.12v7.68c0 .72.12 1.2.36 1.44s.72.36 1.44.36c.24 0 .47-.01.69-.03.22-.02.43-.05.63-.09v3.3c-.36.06-.76.1-1.2.12-.44.02-.87.03-1.29.03-.66 0-1.285-.045-1.875-.135a4.422 4.422 0 01-1.56-.525 2.78 2.78 0 01-1.065-1.11c-.26-.48-.39-1.11-.39-1.89v-9.15h-2.58v-2.85h2.58v-4.65h4.26zm-79.14 4.23c.28 0 .59.05.93.15v3.96c-.2-.04-.44-.075-.72-.105-.28-.03-.55-.045-.81-.045-.78 0-1.44.13-1.98.39a3.43 3.43 0 00-1.305 1.065 4.27 4.27 0 00-.705 1.575c-.14.6-.21 1.25-.21 1.95V151h-4.26v-15.51h4.05v2.88h.06c.2-.48.47-.925.81-1.335.34-.41.73-.76 1.17-1.05.44-.29.91-.515 1.41-.675.5-.16 1.02-.24 1.56-.24zm-18.96-5.49c1.34 0 2.48.195 3.42.585.94.39 1.705.905 2.295 1.545.59.64 1.02 1.37 1.29 2.19a8.1 8.1 0 01.405 2.55c0 .86-.135 1.705-.405 2.535-.27.83-.7 1.565-1.29 2.205-.59.64-1.355 1.155-2.295 1.545-.94.39-2.08.585-3.42.585h-4.95V151h-4.71v-21.42zm46.71 8.7c-.7 0-1.29.14-1.77.42-.48.28-.865.65-1.155 1.11-.29.46-.5.985-.63 1.575a8.552 8.552 0 00-.195 1.845c0 .6.07 1.2.21 1.8.14.6.365 1.135.675 1.605.31.47.7.85 1.17 1.14.47.29 1.035.435 1.695.435.7 0 1.285-.14 1.755-.42a3.19 3.19 0 001.125-1.125c.28-.47.48-1.005.6-1.605.12-.6.18-1.22.18-1.86 0-.64-.06-1.255-.18-1.845a4.51 4.51 0 00-.615-1.56 3.463 3.463 0 00-1.125-1.095c-.46-.28-1.04-.42-1.74-.42zm-18.15 0c-.72 0-1.32.145-1.8.435-.48.29-.865.665-1.155 1.125-.29.46-.495.99-.615 1.59a9.308 9.308 0 000 3.645c.12.59.325 1.12.615 1.59s.675.845 1.155 1.125 1.08.42 1.8.42 1.325-.14 1.815-.42c.49-.28.88-.655 1.17-1.125.29-.47.495-1 .615-1.59a9.308 9.308 0 000-3.645c-.12-.6-.325-1.13-.615-1.59-.29-.46-.68-.835-1.17-1.125-.49-.29-1.095-.435-1.815-.435zm-29.85-5.04h-3.66v6.42h3.66c.54 0 1.06-.04 1.56-.12.5-.08.94-.235 1.32-.465.38-.23.685-.555.915-.975.23-.42.345-.97.345-1.65 0-.68-.115-1.23-.345-1.65a2.533 2.533 0 00-.915-.975 3.63 3.63 0 00-1.32-.465c-.5-.08-1.02-.12-1.56-.12zm20.94-30.17c1.22 0 2.325.195 3.315.585.99.39 1.835.94 2.535 1.65.7.71 1.24 1.57 1.62 2.58.38 1.01.57 2.135.57 3.375 0 1.24-.19 2.36-.57 3.36-.38 1-.92 1.855-1.62 2.565a7.06 7.06 0 01-2.535 1.635c-.99.38-2.095.57-3.315.57-1.22 0-2.32-.19-3.3-.57a7.087 7.087 0 01-2.52-1.635c-.7-.71-1.24-1.565-1.62-2.565-.38-1-.57-2.12-.57-3.36 0-1.24.19-2.365.57-3.375.38-1.01.92-1.87 1.62-2.58a7.26 7.26 0 012.52-1.65c.98-.39 2.08-.585 3.3-.585zm-24.63-5.49l8.94 14.37h.06V97.58h4.41V119h-4.71l-8.91-14.34h-.06V119h-4.41V97.58h4.68zm24.63 8.7c-.72 0-1.32.145-1.8.435-.48.29-.865.665-1.155 1.125-.29.46-.495.99-.615 1.59a9.308 9.308 0 000 3.645c.12.59.325 1.12.615 1.59s.675.845 1.155 1.125 1.08.42 1.8.42 1.325-.14 1.815-.42c.49-.28.88-.655 1.17-1.125.29-.47.495-1 .615-1.59a9.308 9.308 0 000-3.645c-.12-.6-.325-1.13-.615-1.59-.29-.46-.68-.835-1.17-1.125-.49-.29-1.095-.435-1.815-.435z" fill="#D3D3D3" fill-rule="nonzero"/><g transform="rotate(90 97.85 108.5)" stroke-dasharray="10,10"><mask id="d" fill="#fff"><use xlink:href="#c"/></mask><path d="M64.65 0h.7v67h-65v-5.631" stroke="#DADADA" stroke-width="10" mask="url(#d)"/></g></g></svg>